<svg width="16" height="16" viewBox="0 0 16 16" fill="none" xmlns="http://www.w3.org/2000/svg">
<path d="M1.12 1.12C2.11928e-07 2.25067 0 4.05867 0 7.68V8.32C0 11.936 2.11928e-07 13.744 1.12 14.88C2.25067 16 4.05867 16 7.68 16H8.32C11.936 16 13.744 16 14.88 14.88C16 13.7493 16 11.9413 16 8.32V7.68C16 4.064 16 2.256 14.88 1.12C13.7493 2.11928e-07 11.9413 0 8.32 0H7.68C4.064 0 2.256 2.11928e-07 1.12 1.12ZM2.69867 4.86933H4.53333C4.592 7.92 5.936 9.21067 7.00267 9.47733V4.86933H8.72533V7.49867C9.776 7.38667 10.8853 6.18667 11.2587 4.864H12.976C12.8359 5.54864 12.5561 6.19704 12.1542 6.76872C11.7523 7.34041 11.2368 7.8231 10.64 8.18667C11.3062 8.51811 11.8945 8.98705 12.3661 9.56255C12.8377 10.1381 13.1819 10.807 13.376 11.5253H11.4827C11.0773 10.2613 10.064 9.28 8.72533 9.14667V11.5253H8.512C4.864 11.5253 2.784 9.02933 2.69867 4.86933Z" fill="#6085FF"/>
</svg>
