<svg width="16" height="16" viewBox="0 0 16 16" fill="none" xmlns="http://www.w3.org/2000/svg">
<g clip-path="url(#clip0_161_382)">
<path d="M1.09078 14.0027H3.63626V7.82076L-0.00012207 5.09351V12.9118C-0.00012207 13.5154 0.489007 14.0027 1.09078 14.0027Z" fill="#4285F4"/>
<path d="M12.3635 14.0028H14.9091C15.5127 14.0028 16 13.5137 16 12.9119V5.09351L12.3635 7.82083" fill="#34A853"/>
<path d="M12.3635 3.09359V7.82096L16 5.09371V3.63896C16 2.2899 14.46 1.52076 13.3818 2.3299" fill="#FBBC04"/>
<path d="M3.63647 7.82095V3.09367L8.00015 6.36628L12.3638 3.09351V7.82087L8.00015 11.0937" fill="#EA4335"/>
<path d="M-0.00012207 3.63896V5.09355L3.63626 7.82088V3.09359L2.61809 2.3299C1.53807 1.52076 -0.00012207 2.2899 -0.00012207 3.63896Z" fill="#C5221F"/>
</g>
<defs>
<clipPath id="clip0_161_382">
<rect width="16" height="16" fill="white"/>
</clipPath>
</defs>
</svg>
